<svg width="173" height="180" viewBox="0 0 173 180" fill="none" xmlns="http://www.w3.org/2000/svg">
<path d="M86.4 165.326C126.337 165.326 158.713 131.601 158.713 90C158.713 48.3986 126.337 14.674 86.4 14.674C46.4626 14.674 14.0869 48.3986 14.0869 90C14.0869 131.601 46.4626 165.326 86.4 165.326Z" fill="white" fill-opacity="0.3"/>
<path d="M86.4 180C134.117 180 172.8 139.706 172.8 90C172.8 40.2944 134.117 0 86.4 0C38.6826 0 0 40.2944 0 90C0 139.706 38.6826 180 86.4 180Z" fill="white" fill-opacity="0.2"/>
<path d="M157.314 33.7108V67.6565C157.314 69.1043 157.173 70.5521 156.872 71.9706C155.943 76.2652 153.379 84.1793 146.157 90.4402C135.873 99.3521 123.993 98.1195 121.946 97.8652L124.679 78.7206C126.482 77.7032 128.276 76.6761 130.079 75.6489C129.713 79.6011 131.065 82.9174 133.272 83.8369C135.836 84.9032 138.728 82.3891 140.738 80.6282C141.348 80.1 142.194 79.288 143.095 78.1532C145.903 74.6217 147.34 70.1119 147.34 65.5239V33.7108H157.314Z" fill="#F4C47F"/>
<path d="M157.314 33.711V51.6327C157.314 54.3425 155.417 56.7686 152.825 57.0327C149.848 57.336 147.34 54.9001 147.34 51.8675V37.2719C147.34 33.1045 144.607 29.3186 140.682 28.536C140.456 28.4871 140.231 28.4577 139.987 28.4284C135.892 27.9588 131.779 30.5023 129.929 34.7969H117.889C119.382 24.1925 128.191 16.4251 138.09 16.6306C147.34 16.8262 155.454 23.9284 157.314 33.711Z" fill="#F5D29C"/>
<path d="M90.6355 109.321C69.6741 106.807 51.1263 84.9229 49.8209 56.2501C49.7082 53.824 51.5583 51.7892 53.8873 51.7892H132.164C132.098 49.0501 131.957 47.0447 131.873 46.0762C101.99 46.0762 72.1158 46.0762 42.2327 46.0762C41.904 48.4729 36.4571 92.5142 61.2125 112.833C64.2741 115.347 73.6372 123.036 86.6911 122.547C99.5478 122.067 108.291 113.938 112.142 110.358C115.306 107.413 117.974 104.146 120.227 100.692C111.381 107.403 100.553 110.514 90.6355 109.321Z" fill="#F3B65F"/>
<path d="M102.168 129.962H71.111C68.0776 129.962 65.6077 127.399 65.6077 124.229C65.6077 121.069 68.0682 118.497 71.111 118.497H102.168C105.201 118.497 107.671 121.06 107.671 124.229C107.671 127.399 105.201 129.962 102.168 129.962Z" fill="#F4C47F"/>
<path d="M102.168 129.962H82.249C79.2156 129.962 76.7457 127.399 76.7457 124.229C76.7457 121.069 79.2062 118.497 82.249 118.497H102.168C105.201 118.497 107.671 121.06 107.671 124.229C107.671 127.399 105.201 129.962 102.168 129.962Z" fill="#F5D29C"/>
<path d="M98.4585 129.962H74.83C72.7357 129.962 71.0359 131.733 71.0359 133.914C71.0359 136.096 72.7357 137.866 74.83 137.866H98.4585C100.553 137.866 102.253 136.096 102.253 133.914C102.243 131.733 100.553 129.962 98.4585 129.962Z" fill="#F3B65F"/>
<path d="M15.9652 34.7966V68.7423C15.9652 70.1901 16.1061 71.6379 16.4066 73.0564C17.3363 77.351 19.9002 85.2651 27.1221 91.526C37.4056 100.438 49.2856 99.2053 51.3329 98.951L48.6 79.8064C46.7969 78.789 45.0031 77.7618 43.2 76.7347C43.5663 80.6868 42.2139 84.0031 40.007 84.9227C37.4431 85.989 34.5506 83.4749 32.5409 81.714C31.9304 81.1858 31.0852 80.3836 30.1836 79.239C27.3756 75.7075 25.9388 71.1977 25.9388 66.6097V34.7966H15.9652Z" fill="#F3B65F"/>
<path d="M76.4452 137.866C76.3231 145.888 76.1917 153.92 76.0696 161.941C79.1781 162.431 82.8501 162.793 86.9541 162.773C90.8139 162.753 94.2793 162.411 97.247 161.941C97.2188 153.92 97.2 145.898 97.1718 137.866H76.4452Z" fill="url(#paint0_linear_430_5509)"/>
<path d="M15.9652 34.7968V52.7185C15.9652 55.4283 17.8623 57.8544 20.4543 58.1185C23.4313 58.4218 25.9388 55.9859 25.9388 52.9533V38.3479C25.9388 34.1805 28.6716 30.3946 32.5972 29.612C32.8226 29.5631 33.048 29.5338 33.2922 29.5044C37.3868 29.0349 41.5002 31.5783 43.3503 35.8729H55.3899C53.8967 25.2783 45.0876 17.5109 35.1892 17.7164C25.9388 17.912 17.8247 25.0142 15.9652 34.7968Z" fill="#F4C47F"/>
<path d="M132.155 51.7891H53.8874C51.5583 51.7891 49.7082 53.8238 49.8209 56.2499C51.1263 84.9228 69.6742 106.806 90.6355 109.321C100.553 110.514 111.372 107.403 120.218 100.683C131.328 83.7293 132.389 62.2858 132.155 51.7891Z" fill="#F4C47F"/>
<path d="M130.624 46.0761H42.8525C39.8567 46.0761 37.4337 43.5522 37.4337 40.4315C37.4337 37.3109 39.8567 34.787 42.8525 34.787H130.624C133.619 34.787 136.042 37.3109 136.042 40.4315C136.042 43.5522 133.619 46.0761 130.624 46.0761Z" fill="#F4C47F"/>
<path d="M130.624 46.0761H94.0915C91.0957 46.0761 88.6727 43.5522 88.6727 40.4315C88.6727 37.3109 91.0957 34.787 94.0915 34.787H130.624C133.619 34.787 136.042 37.3109 136.042 40.4315C136.042 43.5522 133.619 46.0761 130.624 46.0761Z" fill="#F5D29C"/>
<path d="M124.538 55.0369L89.3114 91.7315C87.574 93.5413 84.766 93.5413 83.038 91.7315L67.1667 75.1891C64.4244 72.3326 64.4244 67.7054 67.1667 64.8489C69.9089 61.9924 74.351 61.9924 77.0933 64.8489L83.038 71.0413C84.7754 72.8511 87.5834 72.8511 89.3114 71.0413L114.612 44.6967C117.354 41.8402 121.796 41.8402 124.538 44.6967C127.28 47.5532 127.28 52.1804 124.538 55.0369Z" fill="white"/>
<path d="M116.781 146.837C115.119 148.089 112.79 147.698 111.597 145.966L107.934 140.674C106.732 138.942 107.108 136.516 108.77 135.274C110.432 134.022 112.761 134.413 113.954 136.145L117.617 141.437C118.819 143.168 118.443 145.585 116.781 146.837Z" fill="#F3B65F"/>
<path d="M130.577 133.493C129.177 135.059 126.83 135.147 125.327 133.699L120.735 129.257C119.232 127.8 119.147 125.354 120.537 123.789C121.937 122.224 124.284 122.136 125.787 123.584L130.379 128.025C131.891 129.482 131.976 131.928 130.577 133.493Z" fill="#F3B65F"/>
<path d="M141.396 113.097C141.396 115.239 139.733 116.971 137.677 116.971H131.413C129.356 116.971 127.694 115.239 127.694 113.097C127.694 110.954 129.356 109.223 131.413 109.223H137.677C139.733 109.233 141.396 110.964 141.396 113.097Z" fill="#F3B65F"/>
<path d="M56.5074 147.081C58.1697 148.334 60.4987 147.942 61.6914 146.211L65.354 140.918C66.5561 139.187 66.1805 136.761 64.5182 135.518C62.8559 134.266 60.5269 134.657 59.3342 136.389L55.6716 141.681C54.4601 143.413 54.8358 145.829 56.5074 147.081Z" fill="#F3B65F"/>
<path d="M42.7023 133.748C44.1016 135.313 46.4494 135.401 47.9521 133.953L52.5444 129.512C54.047 128.054 54.1315 125.609 52.7416 124.043C51.3423 122.478 48.9945 122.39 47.4919 123.838L42.8995 128.279C41.3969 129.727 41.303 132.173 42.7023 133.748Z" fill="#F3B65F"/>
<path d="M31.8834 113.341C31.8834 115.484 33.5457 117.215 35.6024 117.215H41.8664C43.9231 117.215 45.5853 115.484 45.5853 113.341C45.5853 111.199 43.9231 109.467 41.8664 109.467H35.6024C33.5457 109.477 31.8834 111.209 31.8834 113.341Z" fill="#F3B65F"/>
<defs>
<linearGradient id="paint0_linear_430_5509" x1="86.6578" y1="155.291" x2="86.6738" y2="129.546" gradientUnits="userSpaceOnUse">
<stop offset="0.00237772" stop-color="#F5D29C"/>
<stop offset="1" stop-color="#F3B65F"/>
</linearGradient>
</defs>
</svg>
