<svg width="188" height="98" viewBox="0 0 188 98" fill="none" xmlns="http://www.w3.org/2000/svg">
<path fill-rule="evenodd" clip-rule="evenodd" d="M6.88332 16.3264L12.6398 15.504L20.99 29.0491L10.906 36.6503C10.0584 34.2543 7.71998 29.3721 5.1476 29.0109C1.93213 28.5595 1.23186 23.8161 1.07214 21.0613C0.959688 19.1219 4.47474 17.2686 6.88332 16.3264Z" fill="#FFC5AB"/>
<path d="M129.689 51.3115C129.689 51.3115 147.492 57.3317 151.725 60.7954C155.931 64.2592 155.684 97.9617 155.684 97.9617H82.3408C82.3408 97.9617 79.1245 72.6985 82.3408 65.2488C85.5572 57.7991 111.931 52.466 111.931 52.466L129.689 51.3115Z" fill="#444B53"/>
<path d="M111.436 47.408L112.206 55.2151C112.206 55.2151 122.267 57.8267 129.69 51.3116L127.628 35.9723L111.436 47.408Z" fill="#FFC5AB"/>
<path d="M111.931 52.4936C111.931 52.4936 116.659 54.6928 119.518 51.6964C122.377 48.7001 127.628 35.9723 127.628 35.9723L111.436 47.408L111.931 52.4936Z" fill="#FB8E8B"/>
<path d="M100.633 19.5608C98.7084 31.9862 95.0523 46.281 102.667 47.463C110.282 48.6451 117.484 47.6554 122.515 42.7623C127.518 37.8691 126.033 38.3639 126.033 38.3639C126.033 38.3639 129.277 40.2882 130.981 38.4189C132.686 36.5496 134.033 32.536 132.164 30.8317C130.294 29.1273 135.627 22.1724 133.73 16.2071C131.834 10.2418 119.078 1.19764 110.612 5.54104C102.145 9.88443 100.633 19.5608 100.633 19.5608Z" fill="#FFC5AB"/>
<path d="M109.595 0.262949C106.461 -0.726684 103.135 1.17011 102.448 4.38642C100.908 11.3413 100.056 13.5955 106.654 15.1899C114.846 17.1692 123.23 17.774 123.23 17.774C123.23 17.774 120.234 27.9177 125.072 28.6874L124.11 34.9001L132.576 30.5567C132.576 30.5567 137.745 20.0281 134.143 15.9321C134.143 15.9321 132.164 9.33459 123.642 5.48602C119.051 3.45177 113.636 1.58246 109.595 0.262949Z" fill="#212121"/>
<path d="M113.863 29.8969L113.588 29.842C113.148 29.7595 112.818 29.3471 112.9 28.9073L113.34 26.0484C113.423 25.6085 113.835 25.2786 114.275 25.3611L114.55 25.4161C114.99 25.4986 115.319 25.9109 115.237 26.3507L114.797 29.2097C114.715 29.6495 114.302 29.9519 113.863 29.8969Z" fill="#302625"/>
<path d="M102.771 28.3574L102.496 28.3025C102.056 28.22 101.726 27.8076 101.808 27.3678L102.248 24.5089C102.331 24.069 102.743 23.7392 103.183 23.8216L103.458 23.8766C103.898 23.9591 104.228 24.3714 104.145 24.8113L103.705 27.6702C103.65 28.11 103.21 28.4399 102.771 28.3574Z" fill="#302625"/>
<path d="M104.591 21.0725C104.591 21.0725 102.447 19.5056 100.743 20.4678" stroke="#B9796B" stroke-width="2" stroke-miterlimit="10" stroke-linecap="round" stroke-linejoin="round"/>
<path d="M115.999 22.832C115.999 22.832 113.855 21.2651 112.151 22.2273" stroke="#B9796B" stroke-width="2" stroke-miterlimit="10" stroke-linecap="round" stroke-linejoin="round"/>
<path d="M105.873 27.1858L102.629 32.7662L104.938 33.1236" stroke="#B9796B" stroke-width="2" stroke-miterlimit="10" stroke-linecap="round" stroke-linejoin="round"/>
<path d="M101.701 36.2211C101.701 36.2211 104.422 37.7606 107.336 36.7984C110.25 35.8088 110.855 37.953 109.481 40.0972C108.106 42.2414 105.604 44.0008 104.038 42.8462C102.471 41.6916 100.519 39.7398 101.701 36.2211Z" fill="#444B53"/>
<path d="M101.342 38.0064C101.342 38.0064 103.844 39.5183 105.988 38.9411C108.132 38.3638 110.056 37.3741 110.056 37.3741C110.056 37.3741 109.864 36.1096 107.362 36.7969C105.218 37.3741 103.459 36.7969 101.727 36.1921C101.7 36.2196 101.177 37.2917 101.342 38.0064Z" fill="#FDF9F8"/>
<path d="M102.8 41.3878C102.8 41.3878 106.374 41.1404 108.628 41.2228C108.628 41.2228 106.071 44.3841 104.037 42.8447C102.168 41.4427 102.8 41.3878 102.8 41.3878Z" fill="white"/>
<path d="M134.368 26.7837C134.988 26.1534 135.659 22.8438 135.917 21.2678C125.852 17.3278 104.639 9.52671 103.4 9.84191C102.162 10.1571 100.562 16.0145 99.9166 18.9038C110.884 21.7931 133.749 27.4141 134.368 26.7837Z" fill="white"/>
<path d="M73.6533 20.0644L58.027 59.671L35.4751 51.6631L46.9458 10.7146L73.6533 20.0644Z" fill="#2A4E66"/>
<path d="M73.653 20.0644L74.8651 23.5272L59.109 60.9263L58.0268 59.671L73.653 20.0644Z" fill="#1E3E4F"/>
<path d="M58.0269 59.6709L59.1091 60.9262L35.8645 52.6586L35.475 51.663L58.0269 59.6709Z" fill="#1E3E4F"/>
<path d="M71.1852 21.666L57.0307 57.2903L37.5954 50.3646L48.1571 13.6148L71.1852 21.666Z" fill="#CAE7FF"/>
<path d="M67.4951 46.1703C68.6876 47.7907 70.9581 54.1767 71.9443 57.1671L59.8052 63.3426C57.699 62.3143 57.331 57.888 58.0646 55.4235C58.7981 52.959 63.8067 50.9233 63.5333 49.9788C63.2599 49.0342 62.7045 48.9902 59.9882 47.729C57.8152 46.72 57.8012 44.1306 58.0658 42.9621C60.712 43.3563 66.3026 44.5499 67.4951 46.1703Z" fill="#FFC5AB"/>
<path d="M124.955 70.2054C99.8064 79.8999 78.1168 61.9963 70.4156 51.8326L57.9166 63.5599C70.6425 85.7635 105.891 93.6599 121.925 94.8326C133.287 93.269 156.846 87.6399 160.179 77.6326C163.421 67.897 155.217 61.8118 150.352 59.8089C150.835 59.5082 150.559 59.5036 149.953 59.6508C150.083 59.7003 150.216 59.7531 150.352 59.8089C149.125 60.5731 143.001 63.249 124.955 70.2054Z" fill="#444B53"/>
<path d="M151.517 18.3837C145.574 16.2595 138.64 20.7861 135.917 23.3149V25.5909C139.383 24.2 146.911 21.7976 149.288 23.3149C152.259 25.2116 155.231 28.6255 155.602 30.5221C155.974 32.4187 163.774 35.8326 169.345 35.8326C173.802 35.8326 183.583 32.2923 187.917 30.5221L183.459 23.3149C180.117 25.7173 171.499 30.1428 163.774 28.6255C154.117 26.7288 158.945 21.039 151.517 18.3837Z" fill="white"/>
<path d="M151.063 25.0167C146.006 20.9548 137.749 22.8779 134.252 24.3472L133.487 26.5117C137.322 26.3799 145.441 26.6812 147.24 28.941C149.488 31.7657 151.225 36.0333 150.948 37.9647C150.671 39.8961 157.098 45.8226 162.51 47.7367C166.839 49.268 177.53 49.2611 182.334 49.0663L180.43 40.6807C176.375 41.817 166.516 43.0654 159.523 38.9682C150.781 33.8466 157.385 30.0942 151.063 25.0167Z" fill="white"/>
<path d="M58.3652 72.366C65.9353 74.4926 83.2204 64.391 90.9166 59.0743L85.6176 93.2529C78.6783 95.2783 63.7836 95.3026 52.6877 93.6326C37.5475 91.3541 18.1176 56.5426 9.91663 36.6684L20.8933 29.8326C30.2297 43.1243 50.7951 70.2393 58.3652 72.366Z" fill="#444B53"/>
<path d="M7.61032 17.0212L9.40226 25.89C9.16643 26.364 8.49586 27.2842 7.70028 27.173C6.90469 27.0617 5.51116 21.1214 4.91385 18.1651" stroke="#B9796B" stroke-linecap="round" stroke-linejoin="round"/>
<path d="M10.6715 15.4905L12.4635 24.3593C12.2276 24.8333 11.5571 25.7535 10.7615 25.6423C9.96591 25.5311 8.57238 19.5907 7.97507 16.6344" stroke="#B9796B" stroke-linecap="round" stroke-linejoin="round"/>
<path d="M4.7209 18.2736L6.63496 26.0448C6.41002 26.5215 5.75979 27.4416 4.95839 27.3086C4.157 27.1756 2.71577 22.3957 2.0426 19.3711" stroke="#B9796B" stroke-linecap="round" stroke-linejoin="round"/>
<path d="M9.47709 18.5585L4.07783 23.7785L5.18345 25.2452L9.82831 22.8941C8.70606 25.1201 10.3319 27.6898 11.2851 28.6964L16.8652 24.4903L13.7395 18.7958L9.47709 18.5585Z" fill="#FFC5AB"/>
<path d="M13.9238 19.0402L9.63652 18.4383L4.52161 23.7315C4.75349 24.6748 6.08791 25.8094 9.57053 22.8009C8.85907 23.9761 8.14127 26.7534 10.9618 28.4609" stroke="#B9796B" stroke-linecap="round" stroke-linejoin="round"/>
<path d="M150.917 37.3711L153.304 30.8326C153.304 33.2942 155.691 36.9865 156.885 38.5249C157.017 39.2942 156.805 40.8326 154.895 40.8326C152.986 40.8326 151.447 38.5249 150.917 37.3711Z" fill="#1A9996"/>
<path d="M150.917 37.3711L153.304 30.8326C153.304 33.2942 155.691 36.9865 156.885 38.5249C157.017 39.2942 156.805 40.8326 154.895 40.8326C152.986 40.8326 151.447 38.5249 150.917 37.3711Z" fill="white"/>
</svg>
