<svg width="83" height="71" viewBox="0 0 83 71" fill="none" xmlns="http://www.w3.org/2000/svg">
<path d="M0.627441 30.103L2.30936 32.8006C2.30936 32.8006 4.84953 30.22 6.35289 31.1755C7.85626 32.1311 7.90234 33.5351 7.26873 34.5426C6.63513 35.5502 4.96473 36.3237 4.96473 36.3237L6.03609 40.2303L9.04858 39.5543L8.0233 37.4092C8.39194 37.2402 9.03706 36.8827 9.59578 36.1547C10.5635 34.8936 10.5923 33.4311 10.5923 33.0281C10.5923 32.8396 10.5692 30.6035 8.9737 29.102C7.9657 28.1594 6.87129 28.0034 6.24921 27.9319C3.43257 27.5744 1.238 29.5245 0.627441 30.103Z" fill="#464646"/>
<path d="M6.36377 42.1289L7.10682 45.8601L10.4534 44.846L9.29565 41.2709L6.36377 42.1289Z" fill="#464646"/>
<path d="M40.7047 70.0724L33.113 54.7774C24.0122 50.1167 18.1773 39.8984 18.2118 28.575C18.2579 12.7989 29.6455 0 43.6135 0C43.6423 0 43.6711 0 43.6999 0C50.4852 0.0260009 56.8558 3.02911 61.6366 8.4633C66.4175 13.8975 69.0383 21.1062 69.0152 28.757C68.9922 36.4143 66.3311 43.6035 61.5157 48.9987C56.7233 54.3744 50.37 57.3255 43.6135 57.3255C43.5847 57.3255 43.5559 57.3255 43.5271 57.3255C42.9223 57.3255 42.3175 57.2995 41.7127 57.2475L40.7047 70.0724ZM43.6135 3.25011C31.2295 3.25011 21.1322 14.5995 21.0918 28.5815C21.063 38.7869 26.4083 47.9847 34.7028 52.0148L35.1521 52.2293L38.6657 59.3016L39.1149 53.6269L40.6068 53.8479C41.5745 53.9909 42.5652 54.0689 43.5444 54.0754C49.5636 54.1209 55.2257 51.4753 59.4939 46.6911C63.7621 41.907 66.1237 35.5302 66.141 28.744C66.1583 21.9578 63.837 15.568 59.5976 10.7514C55.3525 5.93471 49.7019 3.26961 43.6884 3.25011C43.6654 3.25011 43.6366 3.25011 43.6135 3.25011Z" fill="#464646"/>
<path d="M35.3021 25.3116L41.9895 32.3708L54.5866 18.7853L59.7994 24.1155L41.9607 42.8882L30.2966 30.7718L35.3021 25.3116Z" fill="#464646"/>
<path d="M78.9751 24.4157L76.9072 36.5452L80.2768 37.2797L82.506 25.2737L78.9751 24.4157Z" fill="#464646"/>
<path d="M76.6132 38.3068L76.0027 42.3564L79.211 43.0259L79.9022 38.9958L76.6132 38.3068Z" fill="#464646"/>
</svg>
